<svg width="44" height="32" viewBox="0 0 44 32" fill="none" xmlns="http://www.w3.org/2000/svg">
<path fill-rule="evenodd" clip-rule="evenodd" d="M11.6938 1.54144V2.21399H10.3488H9.00367V2.88653C9.00367 3.52699 8.97158 3.55908 8.33112 3.55908C7.69067 3.55908 7.65858 3.59117 7.65858 4.23162C7.65858 4.88822 7.64032 4.90417 6.88995 4.90417C6.13958 4.90417 6.12133 4.92012 6.12133 5.57672C6.12133 6.21717 6.08923 6.24926 5.44878 6.24926H4.77624V8.36298V10.4767H4.10369H3.43115V12.4943V14.512H2.7586H2.08605V19.3159V24.1198H1.41351C0.756914 24.1198 0.740967 24.138 0.740967 24.8884C0.740967 25.6388 0.756914 25.657 1.41351 25.657C2.05397 25.657 2.08605 25.6891 2.08605 26.3296C2.08605 26.97 2.11815 27.0021 2.7586 27.0021C3.39906 27.0021 3.43115 27.0342 3.43115 27.6746V28.3472H4.77624H6.12133V29.0197V29.6923H8.23505H10.3488V30.3648V31.0374H11.6938H13.0389V29.6923V28.3472H13.7115C14.3519 28.3472 14.384 28.3151 14.384 27.6746V27.0021H21.9742H29.5643V27.6746C29.5643 28.3151 29.5964 28.3472 30.2369 28.3472C30.8773 28.3472 30.9094 28.3793 30.9094 29.0197C30.9094 29.6602 30.9415 29.6923 31.582 29.6923C32.2224 29.6923 32.2545 29.7244 32.2545 30.3648V31.0374H33.6957H35.1369V30.3648V29.6923H36.482H37.827V29.0197V28.3472H39.1721H40.5172V27.6746C40.5172 27.0342 40.5493 27.0021 41.1898 27.0021C41.8302 27.0021 41.8623 26.97 41.8623 26.3296C41.8623 25.6891 41.8944 25.657 42.5349 25.657H43.2074V23.5433V21.4296H42.5349H41.8623V17.2982V13.1669H41.1898H40.5172V11.1492V9.1316H39.8447H39.1721V7.69043V6.24926H38.4996H37.827V4.90417V3.55908H36.482H35.1369V2.88653V2.21399H33.6957H32.2545V1.54144V0.868896H30.2369H28.2193V1.54144V2.21399H29.5643H30.9094V2.88653V3.55908H28.8918H26.8742V2.88653V2.21399H22.0703H17.2664V2.88653V3.55908H15.1527H13.0389V2.88653V2.21399H14.384H15.7291V1.54144V0.868896H13.7115H11.6938V1.54144ZM13.0389 4.23162V4.90417H11.0213H9.00367V5.57672C9.00367 6.21717 8.97158 6.24926 8.33112 6.24926C7.69067 6.24926 7.65858 6.21717 7.65858 5.57672C7.65858 4.93626 7.69067 4.90417 8.33112 4.90417C8.97158 4.90417 9.00367 4.87208 9.00367 4.23162V3.55908H11.0213H13.0389V4.23162ZM33.5996 4.23162V4.90417H35.0408H36.482V5.57672V6.24926H35.0408H33.5996V5.57672V4.90417H32.2545H30.9094V4.23162V3.55908H32.2545H33.5996V4.23162ZM18.6115 15.9531V17.3943H19.284H19.9566V18.7394V20.0845H19.284C18.6436 20.0845 18.6115 20.1166 18.6115 20.757C18.6115 21.3975 18.5794 21.4296 17.9389 21.4296C17.2985 21.4296 17.2664 21.4617 17.2664 22.1021V22.7747H15.8252H14.384V22.1021C14.384 21.4617 14.3519 21.4296 13.7115 21.4296C13.071 21.4296 13.0389 21.3975 13.0389 20.757C13.0389 20.1166 13.0068 20.0845 12.3664 20.0845H11.6938V18.7394V17.3943H12.3664H13.0389V15.9531V14.512H15.8252H18.6115V15.9531ZM30.9094 15.1845C30.9094 15.825 30.9415 15.8571 31.582 15.8571H32.2545V17.9708V20.0845H31.582C30.9415 20.0845 30.9094 20.1166 30.9094 20.757C30.9094 21.3975 30.8773 21.4296 30.2369 21.4296C29.5964 21.4296 29.5643 21.4617 29.5643 22.1021V22.7747H28.2193H26.8742V22.1021C26.8742 21.4455 26.8559 21.4296 26.1055 21.4296H25.3369V18.6433V15.8571H26.1055C26.8559 15.8571 26.8742 15.8411 26.8742 15.1845V14.512H28.8918H30.9094V15.1845ZM9.00367 23.4472V24.1198H10.3488H11.6938V24.8884V25.657H13.0389H14.384V26.3296V27.0021H13.0389H11.6938V26.3296V25.657H10.3488H9.00367V24.8884C9.00367 24.138 8.98772 24.1198 8.33112 24.1198C7.69067 24.1198 7.65858 24.0877 7.65858 23.4472C7.65858 22.8068 7.69067 22.7747 8.33112 22.7747C8.97158 22.7747 9.00367 22.8068 9.00367 23.4472ZM36.482 23.4472C36.482 24.0877 36.4499 24.1198 35.8094 24.1198C35.1528 24.1198 35.1369 24.138 35.1369 24.8884V25.657H34.3682C33.6179 25.657 33.5996 25.673 33.5996 26.3296V27.0021H31.582H29.5643V26.3296V25.657H31.582H33.5996V24.8884V24.1198H34.3682C35.1186 24.1198 35.1369 24.1038 35.1369 23.4472C35.1369 22.8068 35.169 22.7747 35.8094 22.7747C36.4499 22.7747 36.482 22.8068 36.482 23.4472Z" fill="#A2E963"/>
</svg>
