<svg width="43" height="45" viewBox="0 0 43 45" fill="none" xmlns="http://www.w3.org/2000/svg">
<path fill-rule="evenodd" clip-rule="evenodd" d="M16.5408 0.672546V1.34509H14.5231H12.5055V2.01764V2.69018H11.1604H9.81532V3.36273C9.81532 4.00318 9.78323 4.03527 9.14277 4.03527C8.48617 4.03527 8.47023 4.05353 8.47023 4.8039V5.57252H7.7016C6.95123 5.57252 6.93298 5.58847 6.93298 6.24507C6.93298 6.88552 6.9009 6.91761 6.26044 6.91761C5.61998 6.91761 5.58788 6.9497 5.58788 7.59016C5.58788 8.23061 5.55579 8.2627 4.91534 8.2627C4.27488 8.2627 4.24279 8.29479 4.24279 8.93525C4.24279 9.57571 4.21069 9.60779 3.57024 9.60779C2.92978 9.60779 2.89771 9.63988 2.89771 10.2803C2.89771 10.9208 2.86562 10.9529 2.22516 10.9529H1.55261V13.0666V15.1803H0.880063H0.20752V22.0019V28.8234H0.880063H1.55261V30.2646V31.7057H2.22516H2.89771V33.0508V34.3959H3.57024C4.21069 34.3959 4.24279 34.428 4.24279 35.0685C4.24279 35.7089 4.27488 35.741 4.91534 35.741C5.55579 35.741 5.58788 35.7731 5.58788 36.4135C5.58788 37.054 5.61998 37.0861 6.26044 37.0861C6.9009 37.0861 6.93298 37.1182 6.93298 37.7586C6.93298 38.4152 6.95123 38.4312 7.7016 38.4312H8.47023V39.1998C8.47023 39.9502 8.48617 39.9684 9.14277 39.9684C9.78323 39.9684 9.81532 40.0005 9.81532 40.641V41.3135H11.1604H12.5055V41.9861V42.6586H15.2918H18.078V43.3312V44.0037H21.4408H24.8035V43.3312V42.6586H26.9172H29.0309V41.9861V41.3135H30.376H31.7211V40.641V39.9684H33.0662H34.4113V39.1998V38.4312H35.1799C35.9303 38.4312 35.9485 38.4152 35.9485 37.7586C35.9485 37.1182 35.9806 37.0861 36.6211 37.0861C37.2615 37.0861 37.2936 37.054 37.2936 36.4135C37.2936 35.7731 37.3257 35.741 37.9662 35.741C38.6066 35.741 38.6387 35.7089 38.6387 35.0685C38.6387 34.428 38.6708 34.3959 39.3113 34.3959H39.9838V33.0508V31.7057H40.6563H41.3289V29.592V27.4783H42.0014H42.674V21.3293V15.1803H42.0014H41.3289V13.7391V12.298H40.6563H39.9838V10.9529V9.60779H39.3113C38.6708 9.60779 38.6387 9.57571 38.6387 8.93525C38.6387 8.29479 38.6066 8.2627 37.9662 8.2627C37.3257 8.2627 37.2936 8.23061 37.2936 7.59016C37.2936 6.9497 37.2615 6.91761 36.6211 6.91761C35.9806 6.91761 35.9485 6.88552 35.9485 6.24507C35.9485 5.58847 35.9303 5.57252 35.1799 5.57252H34.4113V4.8039C34.4113 4.05353 34.3953 4.03527 33.7387 4.03527C33.0983 4.03527 33.0662 4.00318 33.0662 3.36273V2.69018H31.7211H30.376V2.01764V1.34509H28.3584H26.3407V0.672546V0H21.4408H16.5408V0.672546ZM22.1133 8.93525C22.1133 9.57571 22.1454 9.60779 22.7858 9.60779H23.4584V10.9529V12.298H24.1309C24.7875 12.298 24.8035 12.3162 24.8035 13.0666V13.8352H25.5721C26.3225 13.8352 26.3407 13.8512 26.3407 14.5078C26.3407 15.1482 26.3728 15.1803 27.0133 15.1803H27.6858V16.5254V17.8705H28.3584H29.0309V19.8881V21.9058H28.3584C27.7018 21.9058 27.6858 21.924 27.6858 22.6744C27.6858 23.4248 27.6699 23.443 27.0133 23.443C26.3728 23.443 26.3407 23.4751 26.3407 24.1156C26.3407 24.7722 26.3225 24.7881 25.5721 24.7881C24.8217 24.7881 24.8035 24.8041 24.8035 25.4607C24.8035 26.1011 24.7714 26.1332 24.1309 26.1332H23.4584V27.4783V28.8234H24.1309C24.7714 28.8234 24.8035 28.7913 24.8035 28.1508V27.4783H26.2447H27.6858V26.8057V26.1332H29.0309H30.376V25.4607V24.7881H32.3936H34.4113V24.1156C34.4113 23.459 34.4295 23.443 35.1799 23.443H35.9485V24.7881V26.1332H34.5073H33.0662V26.8057C33.0662 27.4462 33.0341 27.4783 32.3936 27.4783H31.7211V28.8234V30.1685H31.0485C30.3919 30.1685 30.376 30.1867 30.376 30.9371C30.376 31.6875 30.3601 31.7057 29.7035 31.7057C29.063 31.7057 29.0309 31.7378 29.0309 32.3783V33.0508H20.7682H12.5055V32.3783C12.5055 31.7378 12.4734 31.7057 11.833 31.7057C11.1764 31.7057 11.1604 31.6875 11.1604 30.9371C11.1604 30.1867 11.1445 30.1685 10.4879 30.1685H9.81532V28.8234V27.4783H9.14277H8.47023V26.1332V24.7881H11.833H15.1957V26.1332V27.4783H17.3094H19.4231V28.1508C19.4231 28.7913 19.4552 28.8234 20.0956 28.8234H20.7682V26.8057V24.7881H20.0956C19.4552 24.7881 19.4231 24.8202 19.4231 25.4607C19.4231 26.1011 19.391 26.1332 18.7506 26.1332H18.078V24.7881V23.443H18.7506H19.4231V22.0019V20.5607H20.0956H20.7682V19.2156V17.8705H20.0956H19.4231V15.8529V13.8352H18.7506H18.078V12.3941V10.9529H18.7506C19.391 10.9529 19.4231 10.985 19.4231 11.6254C19.4231 12.2659 19.4552 12.298 20.0956 12.298H20.7682V10.2803V8.2627H21.4408C22.0812 8.2627 22.1133 8.29479 22.1133 8.93525ZM16.5408 15.1803V16.5254H17.3094H18.078V18.543V20.5607H17.3094H16.5408V22.0019V23.443H13.178H9.81532V22.6744C9.81532 21.924 9.83127 21.9058 10.4879 21.9058C11.1283 21.9058 11.1604 21.8737 11.1604 21.2332C11.1604 20.5928 11.1925 20.5607 11.833 20.5607H12.5055V19.2156V17.8705H13.178C13.8185 17.8705 13.8506 17.8384 13.8506 17.198C13.8506 16.5575 13.8827 16.5254 14.5231 16.5254H15.1957V15.1803V13.8352H15.8682H16.5408V15.1803Z" fill="#A2E963"/>
</svg>
