<svg width="36" height="32" viewBox="0 0 36 32" fill="none" xmlns="http://www.w3.org/2000/svg">
<path d="M21.2332 2.21399C21.8737 2.21399 21.9058 2.1819 21.9058 1.54144V0.868896H24.692H27.4783V1.54144V2.21399H28.8234H30.1685V2.88653V3.55908H31.5136H32.8587V2.88653C32.8587 2.24608 32.8907 2.21399 33.5312 2.21399C34.1717 2.21399 34.2038 2.1819 34.2038 1.54144C34.2038 0.884845 34.222 0.868896 34.9724 0.868896H35.741V2.21399V3.55908H34.9724C34.222 3.55908 34.2038 3.57503 34.2038 4.23162C34.2038 4.88822 34.222 4.90417 34.9724 4.90417C35.7227 4.90417 35.741 4.92012 35.741 5.57672C35.741 6.23331 35.7227 6.24926 34.9724 6.24926H34.2038V7.01789C34.2038 7.76825 34.1878 7.78651 33.5312 7.78651H32.8587V11.1492V14.512H32.1861H31.5136V16.6257V18.7394H30.841H30.1685V20.0845V21.4296H29.4959C28.8555 21.4296 28.8234 21.4617 28.8234 22.1021C28.8234 22.7426 28.7913 22.7747 28.1508 22.7747C27.5104 22.7747 27.4783 22.8068 27.4783 23.4472C27.4783 24.0877 27.4462 24.1198 26.8057 24.1198C26.1491 24.1198 26.1332 24.138 26.1332 24.8884V25.657H25.3646C24.6142 25.657 24.596 25.673 24.596 26.3296C24.596 26.97 24.5639 27.0021 23.9234 27.0021C23.283 27.0021 23.2509 27.0342 23.2509 27.6746V28.3472H21.9058H20.5607V29.0197V29.6923H18.447H16.3333V30.3648V31.0374H11.5294H6.72546V30.3648V29.6923H4.70782H2.69018V29.0197V28.3472H1.34509H0V27.6746V27.0021H4.13135H8.2627V26.3296V25.657H9.60779H10.9529V24.8884V24.1198H9.60779H8.2627V23.4472V22.7747H6.82153H5.38036V22.1021C5.38036 21.4617 5.34828 21.4296 4.70782 21.4296H4.03527V20.0845V18.7394H4.70782C5.34828 18.7394 5.38036 18.7073 5.38036 18.0668V17.3943H4.03527H2.69018V15.9531V14.512H2.01764H1.34509V13.1669V11.8218H2.01764C2.65809 11.8218 2.69018 11.8539 2.69018 12.4943V13.1669H4.03527H5.38036V12.4943C5.38036 11.8539 5.34828 11.8218 4.70782 11.8218C4.06736 11.8218 4.03527 11.7897 4.03527 11.1492C4.03527 10.5088 4.00318 10.4767 3.36273 10.4767C2.72227 10.4767 2.69018 10.4446 2.69018 9.80414C2.69018 9.16369 2.65809 9.1316 2.01764 9.1316H1.34509V5.67279V2.21399H2.01764C2.65809 2.21399 2.69018 2.24608 2.69018 2.88653C2.69018 3.52699 2.72227 3.55908 3.36273 3.55908C4.00318 3.55908 4.03527 3.59117 4.03527 4.23162C4.03527 4.87208 4.06736 4.90417 4.70782 4.90417C5.34828 4.90417 5.38036 4.93626 5.38036 5.57672V6.24926H6.82153H8.2627V7.01789C8.2627 7.76825 8.27865 7.78651 8.93525 7.78651C9.57571 7.78651 9.60779 7.8186 9.60779 8.45905V9.1316H11.6254H13.6431V9.80414V10.4767H15.7568H17.8705V7.69043V4.90417H18.543C19.1835 4.90417 19.2156 4.87208 19.2156 4.23162C19.2156 3.59117 19.2477 3.55908 19.8881 3.55908C20.5286 3.55908 20.5607 3.52699 20.5607 2.88653C20.5607 2.24608 20.5928 2.21399 21.2332 2.21399Z" fill="#A2E963"/>
</svg>
